<svg version="1.1" id="Capa_1" xmlns="http://www.w3.org/2000/svg" xmlns:xlink="http://www.w3.org/1999/xlink" x="0px" y="0px"
	 viewBox="0 0 50.959 50.959" style="enable-background:new 0 0 50.959 50.959;" xml:space="preserve">
<path fill="#9f9f9f" id="XMLID_52_" d="M47.217,17.579c-0.093,0.488-0.746,0.629-1.004,0.204c-0.801-1.317-2.66-3.087-6.771-2.603
	c-1.784,0.21-7.722,0.636-10.813-1.21v24.906c0,0.033-0.008,0.064-0.01,0.097c-0.104,5.736-5.654,11.033-12.495,11.873
	C9.218,51.694,3.619,47.68,3.619,41.881s5.599-11.187,12.505-12.035c3.808-0.468,7.212,0.548,9.505,2.521V1.502
	c0-0.762,0.571-1.385,1.307-1.481l0-0.007c0,0,0.075-0.007,0.184-0.011c0.003,0,0.006-0.001,0.009-0.001
	c0.002,0,0.004,0.001,0.005,0.001c0.537-0.02,2.237,0.065,4.766,1.637c3.083,1.917,3.083,5.91,8.542,7.625
	C42.995,10.066,48.202,12.4,47.217,17.579z"/>
</svg>
